<svg width="291" height="228" viewBox="0 0 291 228" fill="none" xmlns="http://www.w3.org/2000/svg">
<path d="M73.6602 47.1682V163.473L118.244 149.258L171.227 153.135V0L73.6602 47.1682Z" fill="#7B89B6"/>
<path d="M199.657 10.3382H187.381L192.55 20.0303V83.352L199.657 80.7335V45.5358V10.3382Z" fill="#91A0A5"/>
<path d="M222.272 10.3382H211.934C211.934 14.4735 215.38 18.5227 217.103 20.0303V74.3061L222.272 72.4016V10.3382Z" fill="#91A0A5"/>
<path d="M247.472 14.2151L234.549 10.3382L241.01 20.0303V65.4982L247.472 63.1176V14.2151Z" fill="#91A0A5"/>
<path d="M272.025 14.2151H259.748L264.271 20.0303V56.9283L269.117 55.1429L272.025 14.2151Z" fill="#91A0A5"/>
<path d="M290.763 47.1682V14.2151H281.717L286.886 20.0303V48.5965L290.763 47.1682Z" fill="#91A0A5"/>
<path d="M290.763 5.81526L171.227 0V153.135H192.55V83.352V20.0303L187.381 10.3382H199.657V45.5358V80.7335L217.103 74.3061V20.0303C215.38 18.5227 211.934 14.4735 211.934 10.3382H222.272V72.4016L241.01 65.4982V20.0303L234.549 10.3382L247.472 14.2151V63.1176L264.271 56.9283V20.0303L259.748 14.2151H272.025L269.117 55.1429L286.886 48.5965V20.0303L281.717 14.2151H290.763V5.81526Z" fill="#F3FEF8"/>
<path d="M0 188.027V232.61H115.013L116.628 148.612L0 188.027Z" fill="#550C55"/>
<path d="M193.842 153.781L116.628 148.612L115.013 232.61H193.842V153.781Z" fill="#A4256C"/>
<path d="M192.551 83.3512V231.963H291.41V47.8135L192.551 83.3512Z" fill="#082B6B"/>
<path d="M178.534 199.374L179.296 207.93C177.122 208.805 174.439 209.243 171.248 209.243C168.227 209.243 165.728 208.918 163.752 208.269C161.775 207.591 160.208 206.574 159.05 205.219C157.892 203.864 157.074 202.141 156.594 200.052C156.142 197.962 155.916 195.492 155.916 192.64C155.916 189.872 156.128 187.458 156.551 185.397C157.003 183.307 157.794 181.571 158.923 180.187C160.053 178.775 161.577 177.716 163.497 177.01C165.446 176.305 167.902 175.952 170.867 175.952C171.517 175.952 172.237 175.994 173.027 176.079C173.846 176.135 174.637 176.22 175.399 176.333C176.19 176.446 176.924 176.587 177.602 176.756C178.308 176.898 178.872 177.067 179.296 177.265L177.771 185.058C175.512 184.578 173.493 184.338 171.714 184.338C169.879 184.338 168.608 184.507 167.902 184.846C167.196 185.185 166.844 185.863 166.844 186.879V200.179C167.493 200.32 168.142 200.433 168.792 200.518C169.47 200.574 170.161 200.602 170.867 200.602C173.691 200.602 176.246 200.193 178.534 199.374Z" fill="#F6DB59"/>
</svg>
