<svg width="34" height="34" viewBox="0 0 34 34" fill="none" xmlns="http://www.w3.org/2000/svg">
<path d="M0 17C0 7.61116 7.61116 0 17 0C26.3888 0 34 7.61116 34 17C34 26.3888 26.3888 34 17 34C7.61116 34 0 26.3888 0 17Z" fill="#2D2D2D"/>
<path d="M15.0023 8.25684C12.657 8.25684 10.7558 10.1581 10.7558 12.5034C10.7558 14.8487 12.657 16.7499 15.0023 16.7499C17.3476 16.7499 19.2488 14.8487 19.2488 12.5034C19.2488 10.1581 17.3476 8.25684 15.0023 8.25684Z" fill="#777777"/>
<path d="M17.5083 18.6391C15.8481 18.3742 14.1565 18.3742 12.4963 18.6391L12.3183 18.6675C9.97908 19.0409 8.25781 21.0586 8.25781 23.4275C8.25781 24.7061 9.29431 25.7425 10.5729 25.7425H19.4317C20.7103 25.7425 21.7468 24.7061 21.7468 23.4275C21.7468 21.0586 20.0255 19.0409 17.6863 18.6675L17.5083 18.6391Z" fill="#777777"/>
<path fill-rule="evenodd" clip-rule="evenodd" d="M22.9958 14.2519C23.4096 14.2519 23.7452 14.5875 23.7452 15.0013V16.2503H24.9941C25.408 16.2503 25.7435 16.5858 25.7435 16.9997C25.7435 17.4136 25.408 17.7491 24.9941 17.7491H23.7452V18.9981C23.7452 19.4119 23.4096 19.7474 22.9958 19.7474C22.5819 19.7474 22.2464 19.4119 22.2464 18.9981V17.7491H20.9974C20.5835 17.7491 20.248 17.4136 20.248 16.9997C20.248 16.5858 20.5835 16.2503 20.9974 16.2503H22.2464V15.0013C22.2464 14.5875 22.5819 14.2519 22.9958 14.2519Z" fill="#777777"/>
</svg>
