<svg width="24" height="24" viewBox="0 0 24 24" fill="none" xmlns="http://www.w3.org/2000/svg">
<path d="M9.65855 2.91406C7.31326 2.91406 5.41202 4.8153 5.41202 7.16059C5.41202 9.50589 7.31326 11.4071 9.65855 11.4071C12.0038 11.4071 13.9051 9.50589 13.9051 7.16059C13.9051 4.8153 12.0038 2.91406 9.65855 2.91406Z" fill="#777777"/>
<path d="M12.1646 13.2964C10.5044 13.0314 8.81271 13.0314 7.15253 13.2964L6.97458 13.3248C4.63533 13.6981 2.91406 15.7158 2.91406 18.0847C2.91406 19.3633 3.95056 20.3998 5.22914 20.3998H14.088C15.3665 20.3998 16.403 19.3633 16.403 18.0847C16.403 15.7158 14.6818 13.6981 12.3425 13.3248L12.1646 13.2964Z" fill="#777777"/>
<path fill-rule="evenodd" clip-rule="evenodd" d="M17.652 8.90916C18.0659 8.90916 18.4014 9.24468 18.4014 9.65855V10.9075H19.6504C20.0643 10.9075 20.3998 11.243 20.3998 11.6569C20.3998 12.0708 20.0643 12.4063 19.6504 12.4063H18.4014V13.6553C18.4014 14.0692 18.0659 14.4047 17.652 14.4047C17.2381 14.4047 16.9026 14.0692 16.9026 13.6553V12.4063H15.6537C15.2398 12.4063 14.9043 12.0708 14.9043 11.6569C14.9043 11.243 15.2398 10.9075 15.6537 10.9075H16.9026V9.65855C16.9026 9.24468 17.2381 8.90916 17.652 8.90916Z" fill="#777777"/>
</svg>
