<svg width="17" height="15" viewBox="0 0 17 15" fill="none" xmlns="http://www.w3.org/2000/svg">
<path fill-rule="evenodd" clip-rule="evenodd" d="M5.79727 0.0451619C5.40977 0.128495 5.2631 0.234329 4.5131 0.973495L3.81143 1.666L2.62977 1.66766C1.6256 1.66933 1.41643 1.6785 1.22977 1.72683C0.822265 1.8335 0.453932 2.1185 0.219765 2.511C-0.0127347 2.8985 -0.00106804 2.59016 0.000598623 8.356C0.00226529 13.1543 0.00726517 13.566 0.0597652 13.7685C0.209765 14.3427 0.715599 14.8285 1.28977 14.9502C1.62893 15.0218 15.0356 15.0218 15.3748 14.9502C15.6839 14.8852 15.9089 14.7568 16.1664 14.5002C16.4231 14.2427 16.5514 14.0177 16.6164 13.7085C16.6881 13.371 16.6881 3.29433 16.6164 2.95683C16.4948 2.38266 16.0089 1.87683 15.4348 1.72683C15.2481 1.6785 15.0389 1.66933 14.0348 1.66766L12.8531 1.666L12.1514 0.973495C11.3881 0.220995 11.2339 0.112662 10.8164 0.0359951C10.5306 -0.0173382 6.04643 -0.00900474 5.79727 0.0451619ZM11.1798 2.35849C11.7714 2.94183 11.9164 3.06766 12.1006 3.15516C12.4356 3.316 12.6014 3.33266 13.8548 3.33266H14.9989V13.3327H1.6656V3.33266H2.80977C4.0631 3.33266 4.22893 3.316 4.56393 3.156C4.7481 3.06766 4.89143 2.9435 5.48227 2.35933L6.18227 1.66766L8.32977 1.66683L10.4781 1.666L11.1798 2.35849ZM7.58227 3.821C6.95906 3.94284 6.3702 4.2 5.85727 4.57433C3.6156 6.236 3.6156 9.596 5.85727 11.2577C6.39528 11.6521 7.01953 11.9128 7.67832 12.018C8.33711 12.1232 9.01148 12.0699 9.6456 11.8627C11.9256 11.1027 13.0839 8.57766 12.1798 6.33683C11.6548 5.03349 10.4448 4.06016 9.04893 3.8185C8.67727 3.7535 7.9481 3.75516 7.58227 3.821ZM8.9231 5.48516C9.65227 5.64683 10.3623 6.25433 10.6506 6.9635C10.8864 7.5435 10.8864 8.2885 10.6506 8.86849C10.3598 9.5835 9.66393 10.176 8.90643 10.3527C8.6156 10.421 8.04893 10.421 7.7581 10.3527C7.1225 10.1926 6.57091 9.79819 6.21393 9.2485C5.9656 8.84841 5.834 8.38689 5.834 7.916C5.834 7.4451 5.9656 6.98358 6.21393 6.5835C6.5381 6.076 7.1081 5.65016 7.6656 5.49933C8.02393 5.40183 8.52143 5.39683 8.9231 5.48516Z" fill="#777777"/>
</svg>
