<svg width="20" height="20" viewBox="0 0 20 20" fill="none" xmlns="http://www.w3.org/2000/svg">
<path d="M14.1869 2.52831L13.3914 2.31636C11.1415 1.71688 10.0165 1.41714 9.13023 1.92594C8.24395 2.43474 7.94251 3.55338 7.33963 5.79067L6.48703 8.95466C5.88415 11.1919 5.58272 12.3106 6.0944 13.1918C6.60608 14.0732 7.73108 14.3728 9.98107 14.9723L10.7766 15.1843C13.0265 15.7837 14.1515 16.0835 15.0377 15.5747C15.924 15.0659 16.2255 13.9472 16.8283 11.71L17.6809 8.54599C18.2838 6.3087 18.5852 5.19006 18.0736 4.30879C17.5619 3.42753 16.4369 3.12778 14.1869 2.52831Z" stroke="#6A59CE" stroke-width="1.5"/>
<path d="M14.0449 6.19417C14.0449 6.87257 13.4918 7.42253 12.8096 7.42253C12.1273 7.42253 11.5742 6.87257 11.5742 6.19417C11.5742 5.51577 12.1273 4.96582 12.8096 4.96582C13.4918 4.96582 14.0449 5.51577 14.0449 6.19417Z" stroke="#6A59CE" stroke-width="1.5"/>
<path d="M9.99935 17.4549L9.20577 17.671C6.96104 18.2822 5.8387 18.5879 4.95451 18.0691C4.07033 17.5503 3.76959 16.4097 3.16813 14.1286L2.31753 10.9025C1.71607 8.62133 1.41533 7.48075 1.92583 6.58219C2.36741 5.80492 3.33268 5.83322 4.58268 5.83312" stroke="#6A59CE" stroke-width="1.5" stroke-linecap="round"/>
</svg>
