<svg width="14" height="17" viewBox="0 0 14 17" fill="none" xmlns="http://www.w3.org/2000/svg">
<path fill-rule="evenodd" clip-rule="evenodd" d="M1.22993 0.0592111C0.822428 0.165878 0.454094 0.450878 0.219927 0.843378C-0.015906 1.23588 -0.000906 0.740878 0.000760667 8.35504C0.00242733 14.7284 0.00659408 15.2309 0.0599274 15.4342C0.168261 15.85 0.498261 16.2617 0.891594 16.475C1.25326 16.6709 1.04993 16.6642 6.66576 16.6642C12.2791 16.6642 12.0758 16.6709 12.4416 16.475C12.6649 16.3559 13.0233 15.9975 13.1424 15.7742C13.3374 15.4092 13.3316 15.595 13.3316 10.1792C13.3324 6.73921 13.3216 5.15004 13.2958 5.01421C13.2645 4.87153 13.2178 4.73266 13.1566 4.60004C13.0624 4.40004 12.8833 4.21171 11.0016 2.32921C9.11909 0.447544 8.93076 0.268378 8.73076 0.174211C8.59815 0.112972 8.45928 0.0663096 8.31659 0.0350444C8.18326 0.0100444 7.05326 -0.000788803 4.78493 4.45302e-05C1.74243 0.0017112 1.42993 0.00754441 1.22993 0.0592111ZM6.67243 3.69004L6.68243 5.71504L6.77576 5.91504C6.89826 6.17754 7.15493 6.43504 7.41243 6.55421L7.61576 6.64838L9.64076 6.65838L11.6658 6.66754V14.9984H1.66576V1.66504H6.66326L6.67243 3.69004ZM9.83243 3.51504L11.3158 4.99838H8.33243V3.51504C8.33243 2.69921 8.33659 2.03171 8.34076 2.03171C8.34576 2.03171 9.01659 2.69921 9.83243 3.51504ZM3.89326 7.55088C3.59076 7.64421 3.33243 8.00338 3.33243 8.33171C3.33243 8.66921 3.58993 9.02004 3.90743 9.11421C4.14409 9.18504 5.02076 9.18504 5.25743 9.11421C5.57243 9.02088 5.83243 8.66671 5.83243 8.33171C5.83243 7.99671 5.57243 7.64254 5.25743 7.54921C5.02826 7.48088 4.11659 7.48254 3.89326 7.55088ZM3.89326 10.8842C3.59076 10.9775 3.33243 11.3367 3.33243 11.665C3.33243 12.0025 3.58993 12.3534 3.90743 12.4475C4.16326 12.5234 9.16826 12.5234 9.4241 12.4475C9.73909 12.3542 9.99909 12 9.99909 11.665C9.99909 11.33 9.73909 10.9759 9.4241 10.8825C9.17659 10.8084 4.13326 10.8109 3.89326 10.8842Z" fill="#777777"/>
</svg>
