<svg width="16" height="16" viewBox="0 0 16 16" fill="none" xmlns="http://www.w3.org/2000/svg">
<g clip-path="url(#clip0_17648_7699)">
<path d="M5.57533 0.526248C3.97668 1.08083 2.59801 2.13346 1.64182 3.5295C0.685628 4.92554 0.202319 6.59143 0.262883 8.28245C0.323447 9.97348 0.92469 11.6005 1.9783 12.9246C3.03191 14.2486 4.48235 15.1999 6.11658 15.6387C7.44148 15.9806 8.82959 15.9956 10.1616 15.6825C11.3682 15.4115 12.4838 14.8317 13.3991 14C14.3517 13.1079 15.0431 11.9731 15.3991 10.7175C15.786 9.35208 15.8548 7.91616 15.6003 6.52H8.16033V9.60625H12.4691C12.383 10.0985 12.1984 10.5683 11.9265 10.9875C11.6546 11.4068 11.3009 11.7669 10.8866 12.0462C10.3604 12.3943 9.76732 12.6285 9.14533 12.7337C8.52151 12.8497 7.88165 12.8497 7.25783 12.7337C6.62557 12.603 6.02745 12.3421 5.50158 11.9675C4.65677 11.3695 4.02243 10.5199 3.68908 9.54C3.3501 8.54174 3.3501 7.45951 3.68908 6.46125C3.92636 5.76152 4.31862 5.12442 4.83658 4.5975C5.42932 3.98343 6.17975 3.54449 7.00552 3.32884C7.8313 3.11319 8.70053 3.12916 9.51783 3.375C10.1563 3.57099 10.7401 3.91342 11.2228 4.375C11.7087 3.89166 12.1937 3.40708 12.6778 2.92125C12.9278 2.66 13.2003 2.41125 13.4466 2.14375C12.7098 1.45809 11.8449 0.924569 10.9016 0.573748C9.18371 -0.0500151 7.30405 -0.0667781 5.57533 0.526248Z" fill="white"/>
<path d="M5.5725 0.526252C7.30108 -0.0671764 9.18074 -0.0508546 10.8987 0.572502C11.8423 0.925707 12.7067 1.4618 13.4425 2.15C13.1925 2.4175 12.9288 2.6675 12.6737 2.9275C12.1888 3.41167 11.7042 3.89417 11.22 4.375C10.7373 3.91342 10.1535 3.57099 9.515 3.375C8.69797 3.1283 7.82877 3.11141 7.00277 3.32618C6.17678 3.54095 5.42589 3.97908 4.8325 4.5925C4.31454 5.11942 3.92228 5.75652 3.685 6.45625L1.09375 4.45C2.02126 2.6107 3.62719 1.20378 5.5725 0.526252Z" fill="#E33629"/>
<path d="M0.408903 6.4375C0.548179 5.74724 0.779407 5.07878 1.0964 4.45L3.68765 6.46125C3.34867 7.4595 3.34867 8.54174 3.68765 9.54C2.82432 10.2067 1.96057 10.8767 1.0964 11.55C0.302841 9.97039 0.0608185 8.17062 0.408903 6.4375Z" fill="#F8BD00"/>
<path d="M8.15681 6.51875H15.5968C15.8513 7.91492 15.7825 9.35084 15.3956 10.7163C15.0396 11.9719 14.3482 13.1067 13.3956 13.9988C12.5593 13.3463 11.7193 12.6988 10.8831 12.0463C11.2977 11.7666 11.6515 11.4061 11.9234 10.9864C12.1954 10.5667 12.3798 10.0964 12.4656 9.60375H8.15681C8.15556 8.57625 8.15681 7.5475 8.15681 6.51875Z" fill="#587DBD"/>
<path d="M1.09375 11.55C1.95792 10.8833 2.82167 10.2133 3.685 9.54C4.01901 10.5202 4.65426 11.3699 5.5 11.9675C6.02751 12.3403 6.62691 12.5992 7.26 12.7275C7.88382 12.8435 8.52368 12.8435 9.1475 12.7275C9.76949 12.6222 10.3626 12.388 10.8888 12.04C11.725 12.6925 12.565 13.34 13.4012 13.9925C12.4861 14.8247 11.3705 15.4049 10.1637 15.6763C8.83176 15.9894 7.44365 15.9744 6.11875 15.6325C5.07088 15.3527 4.09209 14.8595 3.24375 14.1838C2.34583 13.4709 1.61244 12.5725 1.09375 11.55Z" fill="#319F43"/>
</g>
<defs>
<clipPath id="clip0_17648_7699">
<rect width="16" height="16" fill="white"/>
</clipPath>
</defs>
</svg>
