<svg width="15" height="16" viewBox="0 0 15 16" fill="none" xmlns="http://www.w3.org/2000/svg">
<path fill-rule="evenodd" clip-rule="evenodd" d="M2.22643 0.0564653C1.92393 0.149799 1.6656 0.508965 1.6656 0.837299C1.6656 1.1748 1.9231 1.52563 2.2406 1.6198C2.38977 1.66397 3.04143 1.67063 7.49893 1.67063C11.9564 1.67063 12.6081 1.66397 12.7573 1.6198C13.0723 1.52647 13.3323 1.1723 13.3323 0.837299C13.3323 0.502299 13.0723 0.148132 12.7573 0.0547987C12.5073 -0.0193679 2.4681 -0.0177014 2.22643 0.0564653ZM1.22977 2.5648C0.822265 2.67147 0.453932 2.95647 0.219765 3.34897C-0.0127347 3.73647 -0.00106804 3.42813 0.000598623 9.19396C0.00226529 13.9923 0.00726517 14.404 0.0597652 14.6065C0.209765 15.1806 0.715598 15.6665 1.28977 15.7881C1.6281 15.8598 13.3698 15.8598 13.7081 15.7881C14.0173 15.7231 14.2423 15.5948 14.4998 15.3381C14.7564 15.0806 14.8848 14.8556 14.9498 14.5465C15.0214 14.209 15.0214 4.1323 14.9498 3.7948C14.8281 3.22063 14.3423 2.7148 13.7681 2.5648C13.5648 2.5123 13.1106 2.50813 7.49893 2.50813C1.88726 2.50813 1.4331 2.5123 1.22977 2.5648ZM13.3323 6.9623V9.75397L12.0073 8.4298C10.5189 6.94313 10.5398 6.95897 10.0989 6.95897C9.63476 6.95897 9.9031 6.71897 5.98227 10.639L2.4481 14.1706H1.6656V4.17063H13.3323V6.9623ZM4.3106 5.8698C3.95643 5.9448 3.60476 6.23563 3.44393 6.5873C3.36476 6.75897 3.35143 6.8298 3.35227 7.0873C3.35227 7.34397 3.3656 7.4173 3.44477 7.59063C3.56227 7.84897 3.81893 8.1048 4.08227 8.22563C4.25393 8.3048 4.3256 8.31813 4.58226 8.31813C4.83893 8.31813 4.9106 8.3048 5.08227 8.22563C5.3456 8.1048 5.60226 7.84897 5.71976 7.59063C5.79893 7.41647 5.81226 7.34397 5.81226 7.0873C5.81226 6.83063 5.79893 6.75813 5.71976 6.58397C5.58679 6.31241 5.3684 6.09197 5.0981 5.95646C4.84817 5.85728 4.57612 5.82734 4.3106 5.8698ZM11.7239 10.479L13.3323 12.0873V14.1706H4.78226L7.43227 11.5206C8.31567 10.6318 9.20458 9.74845 10.0989 8.87063C10.1081 8.87063 10.8389 9.59397 11.7239 10.479Z" fill="#777777"/>
</svg>
