<svg width="101" height="101" viewBox="0 0 101 101" fill="none" xmlns="http://www.w3.org/2000/svg">
<rect x="0.628894" y="-0.323253" width="79" height="79" rx="39.5" transform="matrix(0.952147 0.305642 0.305642 -0.952147 0.128894 75.3485)" fill="#FFE9E9"/>
<rect x="0.628894" y="-0.323253" width="79" height="79" rx="39.5" transform="matrix(0.952147 0.305642 0.305642 -0.952147 0.128894 75.3485)" stroke="#FF2E9B"/>
<path d="M58.1928 61.6833C58.2543 63.3764 56.3122 64.3746 54.9716 63.3379L38.5827 50.6804C37.2374 49.6408 37.72 47.5048 39.3807 47.1431L46.3991 45.6165L49.9877 52.598C50.1529 52.9062 50.4325 53.1371 50.7663 53.241C51.1001 53.345 51.4613 53.3137 51.7723 53.1538C52.0832 52.994 52.3189 52.7185 52.4287 52.3865C52.5384 52.0546 52.5134 51.6928 52.359 51.3792L48.7705 44.3976L54.0981 39.5794C55.3575 38.4391 57.375 39.2911 57.4377 40.9889L58.1928 61.6833Z" fill="#FF2E9B"/>
</svg>
