<svg width="18" height="17" viewBox="0 0 18 17" fill="none" xmlns="http://www.w3.org/2000/svg">
<path fill-rule="evenodd" clip-rule="evenodd" d="M15.4286 2.41095V3.38584C15.9401 3.38584 16.4306 3.58903 16.7923 3.95071C17.154 4.31239 17.3571 4.80293 17.3571 5.31442V14.9573C17.3571 15.4688 17.154 15.9593 16.7923 16.321C16.4306 16.6827 15.9401 16.8858 15.4286 16.8858H1.92857C1.41708 16.8858 0.926543 16.6827 0.564865 16.321C0.203188 15.9593 0 15.4688 0 14.9573V5.31442C0 4.30674 0.805179 3.39259 1.74825 3.12356L12.3554 0.0928092C12.7142 -0.00973783 13.0919 -0.0275874 13.4588 0.0406661C13.8257 0.10892 14.1717 0.261412 14.4696 0.486136C14.7675 0.710859 15.0092 1.00168 15.1756 1.33569C15.342 1.6697 15.4286 2.03778 15.4286 2.41095ZM12.0536 8.68942C11.67 8.68942 11.302 8.84181 11.0308 9.11306C10.7595 9.38432 10.6071 9.75223 10.6071 10.1358C10.6071 10.5195 10.7595 10.8874 11.0308 11.1586C11.302 11.4299 11.67 11.5823 12.0536 11.5823C12.4372 11.5823 12.8051 11.4299 13.0764 11.1586C13.3476 10.8874 13.5 10.5195 13.5 10.1358C13.5 9.75223 13.3476 9.38432 13.0764 9.11306C12.8051 8.84181 12.4372 8.68942 12.0536 8.68942ZM13.5 2.41095C13.5001 2.34289 13.4857 2.27558 13.4579 2.21346C13.43 2.15134 13.3894 2.09582 13.3385 2.05055C13.2877 2.00528 13.2279 1.97128 13.163 1.9508C13.098 1.93031 13.0295 1.92381 12.9619 1.9317L12.8848 1.94713L7.84929 3.38584H13.5V2.41095Z" fill="#777777"/>
</svg>
